<svg width="124" height="96" viewBox="0 0 124 96" fill="none" xmlns="http://www.w3.org/2000/svg">
<path d="M107.69 12.62C97.13 4.21 81.74 0 61.54 0C41.34 0 26.05 4.21 15.39 12.62C5.13 20.82 0 32.52 0 47.69C0 62.86 5.13 74.56 15.39 82.77C26.05 91.18 41.44 95.38 61.54 95.38C81.64 95.38 97.13 91.18 107.69 82.77C117.94 74.56 123.08 62.87 123.08 47.69C123.08 32.51 117.95 20.82 107.69 12.61V12.62ZM100.57 28.47C100.34 29.52 100.12 30.57 99.81 31.6C98.86 34.81 97.33 37.73 95.23 40.36C94.96 40.7 94.87 41.06 95.09 41.45C95.37 41.94 95.55 42.47 95.72 43.01C97.12 47.56 96.33 51.75 93.48 55.6C93.3 55.84 93.17 56.16 92.74 56.23C92.9 55.23 92.94 54.27 92.91 53.31C92.88 52.37 92.79 51.43 92.61 50.5C92.42 49.56 92.24 48.61 91.98 47.69C91.74 46.8 91.58 45.86 91.05 45.05C90.98 45.12 90.98 45.18 90.99 45.24C91.38 48.13 90.73 50.84 89.49 53.48C88.01 56.64 85.95 59.38 83.52 61.87C82.65 62.77 81.64 63.48 80.45 63.89C79.9 64.08 79.35 64.29 78.66 64.15C80.48 62.01 80.87 59.57 80.78 56.99C80.73 55.48 80.43 54.01 80.35 52.51C80.31 51.76 80.57 51.1 81.15 50.57C81.3 50.43 81.74 50.03 81.41 50.03C69.89 49.92 71.33 56.19 71.67 57.87C71.99 60.23 71.67 63.22 70.24 66.57C68.45 70.26 66.36 72.03 63.24 74.62C60.88 76.58 58.27 78.18 55.32 79.16C53.42 79.79 51.48 80.14 49.48 80.1C49.03 80.1 48.58 80.01 48.33 79.55C48.09 79.1 48.23 78.88 48.73 78.86C50.18 78.8 51.57 78.54 52.89 77.84C56.07 76.15 57.58 73.55 57.42 69.98C57.36 68.74 57.19 67.49 57.69 66.28C56.44 66.35 56.04 65.85 55.71 64.67C55.64 64.44 55.62 64.2 55.57 63.96C55.24 62.39 54.53 61.86 52.91 62.05C51.13 62.27 49.35 62.56 47.56 62.77C46.33 62.92 45.12 63.23 43.87 63.13C42.95 63.06 42.14 62.46 41.98 61.77C41.86 61.2633 41.5567 61.1167 41.07 61.33C41.01 61.35 40.96 61.39 40.9 61.41C38.5 62.28 36.09 63.12 33.61 63.7C32.29 64.01 30.99 64.49 29.62 64.38C28.55 64.3 28.21 63.88 28.3 62.81C28.4 61.69 27.71 61.3 26.8 61.38C25.59 61.49 24.46 61.85 23.48 62.62C22.19 63.63 21.12 64.85 20.19 66.19C19.81 66.74 19.54 66.73 19.24 66.13C19.18 66 19.15 65.87 19.11 65.73C18.49 63.42 18.85 61.16 19.63 58.95C28.71 36.23 66.09 40.88 57.26 35.12C55.97 33.37 55.77 31.34 56.13 29.24C56.63 26.31 58.25 23.93 59.98 21.61C61 20.25 62.06 18.91 62.82 17.38C63.76 15.5 64.13 13.57 63.37 11.55C63.33 11.44 63.21 11.33 63.32 11.22C63.44 11.11 63.59 11.19 63.73 11.22C65.39 11.65 66.99 12.25 68.5 13.06C70.66 14.2 72.6 15.66 74.27 17.43C75.46 18.7 76.53 20.07 77.31 21.64C77.45 21.91 77.62 22.08 77.96 22.08C80.67 22.12 83.31 22.67 85.95 23.12C87.78 23.43 89.6 23.85 91.44 24.08C93.93 24.39 96.4 24.79 98.82 25.46C99.83 25.74 100.07 26.16 99.89 27.19C99.86 27.39 99.79 27.57 100.05 27.59C100.67 27.62 100.64 28.05 100.55 28.45L100.57 28.47Z" fill="#DBE3E7"/>
<path d="M90.1062 26.9399C89.0262 26.9399 88.1562 27.8099 88.1562 28.8899C88.1562 29.9699 89.0262 30.8399 90.1062 30.8399C91.1862 30.8399 92.0562 29.9699 92.0562 28.8899C92.0562 27.8099 91.1862 26.9399 90.1062 26.9399Z" fill="#DBE3E7"/>
</svg>
