<svg width="8" height="16" viewBox="0 0 8 16" fill="none" xmlns="http://www.w3.org/2000/svg">
<path d="M5.94623 0C7.01759 0 7.55311 0.73072 7.55311 1.56624C7.55311 2.60976 6.62287 3.57504 5.41055 3.57504C4.39551 3.57504 3.80335 2.97472 3.83151 1.98352C3.83151 1.14816 4.53631 0 5.94623 0ZM2.64719 16C1.80127 16 1.18095 15.4781 1.77311 13.1816L2.74431 9.10848C2.91343 8.45616 2.94111 8.19536 2.74431 8.19536C2.49023 8.19536 1.39215 8.64592 0.742712 9.08976L0.320312 8.38496C2.37839 6.6368 4.74623 5.61152 5.76095 5.61152C6.60655 5.61152 6.74783 6.62928 6.32495 8.1952L5.21311 12.4768C5.01567 13.2334 5.10063 13.4942 5.29743 13.4942C5.55119 13.4942 6.38335 13.1802 7.20079 12.5277L7.68031 13.1803C5.67839 15.216 3.49311 16 2.64719 16Z" fill="#2F2D68"/>
</svg>