<svg width="40" height="42" viewBox="0 0 40 42" fill="none" xmlns="http://www.w3.org/2000/svg">
<path d="M6.66667 16.1211L9.21432 13.5869C9.64824 13.1552 10.3518 13.1552 10.7857 13.5869C11.2196 14.0185 11.2196 14.7183 10.7857 15.15L6.34123 19.571C5.90731 20.0026 5.2038 20.0026 4.76988 19.571L0.325437 15.15C-0.108479 14.7183 -0.108479 14.0185 0.325437 13.5869C0.759353 13.1552 1.46287 13.1552 1.89678 13.5869L4.44444 16.1211V1.10526C4.44444 0.494843 4.94191 0 5.55556 0C6.16921 0 6.66667 0.494843 6.66667 1.10526V16.1211ZM22.2222 16.5789V22.2101C22.2222 22.9416 21.9644 23.6499 21.4937 24.2119C20.3823 25.5385 18.4001 25.7178 17.0665 24.6122L15.0135 22.9104C14.3859 22.3902 13.5948 22.1053 12.7778 22.1053C12.1859 22.1053 11.6463 22.4426 11.3896 22.9732L11.3103 23.1372C11.01 23.758 11.1009 24.4959 11.5431 25.0261L21.3508 36.7864C22.9373 38.6887 25.293 39.7895 27.7778 39.7895C33.3006 39.7895 37.7778 35.3359 37.7778 29.8421V21C37.7778 20.3896 37.2803 19.8947 36.6667 19.8947C36.053 19.8947 35.5556 20.3896 35.5556 21V23.2105C35.5556 23.8209 35.0581 24.3158 34.4444 24.3158C33.8308 24.3158 33.3333 23.8209 33.3333 23.2105V18.7895C33.3333 18.1791 32.8359 17.6842 32.2222 17.6842C31.6086 17.6842 31.1111 18.1791 31.1111 18.7895V23.2105C31.1111 23.8209 30.6137 24.3158 30 24.3158C29.3864 24.3158 28.8889 23.8209 28.8889 23.2105V16.5789C28.8889 15.9685 28.3914 15.4737 27.7778 15.4737C27.1641 15.4737 26.6667 15.9685 26.6667 16.5789V23.2105C26.6667 23.8209 26.1692 24.3158 25.5556 24.3158C24.9419 24.3158 24.4444 23.8209 24.4444 23.2105V7.73684C24.4444 7.12642 23.947 6.63158 23.3333 6.63158C22.7197 6.63158 22.2222 7.12642 22.2222 7.73684V16.5789ZM20 16.5789V7.73684C20 5.90558 21.4924 4.42105 23.3333 4.42105C25.1743 4.42105 26.6667 5.90558 26.6667 7.73684V13.4518C27.0142 13.3296 27.3882 13.2632 27.7778 13.2632C29.315 13.2632 30.6091 14.2982 30.9944 15.7059C31.3743 15.556 31.7886 15.4737 32.2222 15.4737C33.7594 15.4737 35.0536 16.5087 35.4388 17.9164C35.8188 17.7666 36.2331 17.6842 36.6667 17.6842C38.5076 17.6842 40 19.1687 40 21V29.8421C40 36.5567 34.5279 42 27.7778 42C24.6318 42 21.6492 40.6064 19.6405 38.1978L9.83279 26.4375C8.83582 25.2421 8.63074 23.5783 9.30785 22.1786L9.38718 22.0146C10.0141 20.7187 11.332 19.8947 12.7778 19.8947C14.1146 19.8947 15.4091 20.361 16.4361 21.2123L18.4891 22.9141C18.8799 23.2381 19.4608 23.1855 19.7865 22.7967C19.9244 22.6321 20 22.4245 20 22.2101V16.5789Z" fill="#32C3C6"/>
</svg>
