<svg width="24" height="36" viewBox="0 0 24 36" fill="none" xmlns="http://www.w3.org/2000/svg">
<path d="M12 0C5.37273 0 0 5.54063 0 12.375V23.625C0 30.4594 5.37273 36 12 36C18.6273 36 24 30.4594 24 23.625V12.375C24 5.54063 18.6273 0 12 0ZM21.8182 23.625C21.8182 29.2078 17.4136 33.75 12 33.75C6.58636 33.75 2.18182 29.2078 2.18182 23.625V12.375C2.18182 6.79219 6.58636 2.25 12 2.25C17.4136 2.25 21.8182 6.79219 21.8182 12.375V23.625ZM12 5.625C10.1918 5.625 8.72727 7.13531 8.72727 9V13.5C8.72727 15.3647 10.1918 16.875 12 16.875C13.8082 16.875 15.2727 15.3647 15.2727 13.5V9C15.2727 7.13531 13.8082 5.625 12 5.625ZM13.0909 13.5C13.0909 14.1216 12.6027 14.625 12 14.625C11.3973 14.625 10.9091 14.1216 10.9091 13.5V9C10.9091 8.37844 11.3973 7.875 12 7.875C12.6027 7.875 13.0909 8.37844 13.0909 9V13.5Z" fill="#32C3C6"/>
<path d="M13.0881 21.4819C13.0881 20.8606 12.5997 20.3569 11.9972 20.3569C11.3947 20.3569 10.9062 20.8606 10.9062 21.4819V28.2994C10.9062 28.9208 11.3947 29.4244 11.9972 29.4244C12.5997 29.4244 13.0881 28.9208 13.0881 28.2994V21.4819Z" fill="#32C3C6"/>
<path d="M10.2517 25.163C9.82564 24.7237 9.13492 24.7237 8.70889 25.163C8.28286 25.6023 8.28286 26.3147 8.70889 26.754L11.2525 29.3771C11.6786 29.8165 12.3693 29.8165 12.7953 29.3771C13.2214 28.9378 13.2214 28.2255 12.7953 27.7861L10.2517 25.163Z" fill="#32C3C6"/>
<path d="M15.2948 26.7527C15.7209 26.3134 15.7209 25.601 15.2948 25.1617C14.8688 24.7224 14.1781 24.7224 13.752 25.1617L11.2084 27.7849C10.7824 28.2242 10.7824 28.9365 11.2084 29.3758C11.6344 29.8152 12.3251 29.8152 12.7512 29.3758L15.2948 26.7527Z" fill="#32C3C6"/>
</svg>
