<svg xmlns="http://www.w3.org/2000/svg" xmlns:xlink="http://www.w3.org/1999/xlink"><symbol id="icon-arr-down" viewBox="0 0 14 8"><path d="M13.7 1.7l-6 6c-.2.2-.4.3-.7.3-.3 0-.5-.1-.7-.3l-6-6C-.1 1.3-.1.7.3.3c.4-.4 1-.4 1.4 0L7 5.6 12.3.3c.4-.4 1-.4 1.4 0 .4.4.4 1 0 1.4z"/></symbol><symbol id="icon-arr-left" viewBox="0 0 17 28"><path d="M15.747 24.158c.784.767.784 1.917 0 2.684-.392.383-.783.575-1.37.575-.588 0-.98-.192-1.372-.575l-11.75-11.5c-.783-.767-.783-1.917 0-2.684l11.75-11.5c.784-.766 1.959-.766 2.742 0 .784.767.784 1.917 0 2.684L5.368 14l10.38 10.158z"/></symbol><symbol id="icon-arr-right" viewBox="0 0 17 28"><path d="M15.747 15.342l-11.75 11.5c-.392.383-.783.575-1.37.575-.588 0-.98-.192-1.372-.575-.783-.767-.783-1.917 0-2.684L11.635 14 1.255 3.842c-.783-.767-.783-1.917 0-2.684.784-.766 1.959-.766 2.742 0l11.75 11.5c.784.767.784 1.917 0 2.684z"/></symbol><symbol id="icon-arr-up" viewBox="0 0 14 8"><path d="M.3 6.3l6-6c.2-.2.4-.3.7-.3.3 0 .5.1.7.3l6 6c.4.4.4 1 0 1.4-.4.4-1 .4-1.4 0L7 2.4 1.7 7.7c-.4.4-1 .4-1.4 0-.4-.4-.4-1 0-1.4z"/></symbol><symbol id="icon-back" viewBox="0 0 18 13"><path d="M7.43 3.567a.513.513 0 01-.43-.5V.706a.5.5 0 00-.854-.353L.354 6.146a.5.5 0 000 .708l5.792 5.792A.5.5 0 007 12.293V9.9c0-.276.224-.5.5-.495 3.818.085 6.735 1.146 8.988 3.327.387.375 1.087.028.916-.482-1.366-4.066-4.312-7.718-9.973-8.683z"/></symbol><symbol id="icon-close" viewBox="0 0 21 21"><path d="M.88 19.39a1 1 0 010-1.414L17.976.882a1 1 0 011.414 0l.812.812a1 1 0 010 1.414L3.107 20.203a1 1 0 01-1.414 0L.88 19.39z"/><path d="M19.387 20.203a1 1 0 01-1.414 0L.879 3.108a1 1 0 010-1.414L1.69.882a1 1 0 011.414 0L20.2 17.976a1 1 0 010 1.414l-.813.813z"/></symbol><symbol id="icon-finger" viewBox="0 0 40 42"><path d="M6.667 16.121l2.547-2.534a1.115 1.115 0 011.572 0 1.101 1.101 0 010 1.563L6.34 19.571a1.115 1.115 0 01-1.571 0L.325 15.15a1.101 1.101 0 010-1.563 1.115 1.115 0 011.572 0l2.547 2.534V1.105C4.444.495 4.942 0 5.556 0c.613 0 1.11.495 1.11 1.105v15.016zm15.555.458v5.631c0 .732-.258 1.44-.728 2.002a3.155 3.155 0 01-4.427.4l-2.053-1.702a3.504 3.504 0 00-2.236-.805c-.592 0-1.132.338-1.388.868l-.08.164c-.3.621-.21 1.359.233 1.89l9.808 11.76a8.368 8.368 0 006.427 3.002c5.523 0 10-4.453 10-9.947V21c0-.61-.498-1.105-1.111-1.105-.614 0-1.111.495-1.111 1.105v2.21c0 .61-.498 1.106-1.112 1.106a1.108 1.108 0 01-1.11-1.105V18.79c0-.61-.498-1.106-1.112-1.106-.613 0-1.11.495-1.11 1.105v4.421c0 .61-.498 1.106-1.112 1.106a1.108 1.108 0 01-1.111-1.105v-6.632c0-.61-.498-1.105-1.111-1.105-.614 0-1.111.495-1.111 1.105v6.631c0 .61-.498 1.106-1.111 1.106a1.108 1.108 0 01-1.112-1.105V7.736c0-.61-.497-1.105-1.11-1.105-.614 0-1.112.494-1.112 1.105v8.842zm-2.222 0V7.737a3.325 3.325 0 013.333-3.316 3.325 3.325 0 013.334 3.316v5.715a3.343 3.343 0 011.11-.189 3.332 3.332 0 013.217 2.443c.38-.15.795-.232 1.228-.232a3.332 3.332 0 013.217 2.442c.38-.15.794-.232 1.228-.232A3.325 3.325 0 0140 21v8.842C40 36.557 34.528 42 27.778 42a10.595 10.595 0 01-8.137-3.802l-9.808-11.76a3.956 3.956 0 01-.525-4.26l.08-.163a3.764 3.764 0 013.39-2.12c1.337 0 2.631.466 3.658 1.317l2.053 1.702a.925.925 0 001.297-.117.913.913 0 00.214-.587V16.58z"/></symbol><symbol id="icon-full" viewBox="0 0 21 21"><path d="M3 14.5a1 1 0 00-1-1H1a1 1 0 00-1 1V20a1 1 0 001 1h5.5a1 1 0 001-1v-1a1 1 0 00-1-1H4a1 1 0 01-1-1v-2.5zm-3-8a1 1 0 001 1h1a1 1 0 001-1V4a1 1 0 011-1h2.5a1 1 0 001-1V1a1 1 0 00-1-1H1a1 1 0 00-1 1v5.5zM18 17a1 1 0 01-1 1h-2.5a1 1 0 00-1 1v1a1 1 0 001 1H20a1 1 0 001-1v-5.5a1 1 0 00-1-1h-1a1 1 0 00-1 1V17zM14.5 0a1 1 0 00-1 1v1a1 1 0 001 1H17a1 1 0 011 1v2.5a1 1 0 001 1h1a1 1 0 001-1V1a1 1 0 00-1-1h-5.5z"/></symbol><symbol id="icon-geo" viewBox="0 0 17 22"><path d="M0 8.546c0 4.528 7.613 12.562 7.931 12.882a.803.803 0 001.138 0C9.387 21.108 17 13.074 17 8.546 17 4.016 13.196 0 8.5 0S0 3.825 0 8.546zm11.29-.192c0 1.532-1.27 2.804-2.79 2.804S5.71 9.882 5.71 8.354c0-1.529 1.27-2.805 2.79-2.805s2.79 1.276 2.79 2.805z"/></symbol><symbol id="icon-info" viewBox="0 0 8 16"><path d="M5.946 0c1.072 0 1.607.73 1.607 1.566 0 1.044-.93 2.009-2.142 2.009-1.015 0-1.608-.6-1.58-1.591C3.832 1.148 4.537 0 5.947 0zM2.647 16c-.846 0-1.466-.522-.874-2.818l.971-4.074c.17-.652.197-.913 0-.913-.254 0-1.352.45-2.001.895L.32 8.385c2.058-1.748 4.426-2.773 5.44-2.773.847 0 .988 1.017.565 2.583l-1.112 4.282c-.197.756-.112 1.017.084 1.017.254 0 1.086-.314 1.904-.966l.48.652C5.677 15.216 3.492 16 2.646 16z"/></symbol><symbol id="icon-mail" viewBox="0 0 20 14"><path d="M13.16 7.335l5.837 5.003c.125-.285.189-.591.189-.902V3.498L13.16 7.335zM10.484 7.238l8.624-5.488A2.279 2.279 0 0016.912.043H3.24A2.279 2.279 0 001.043 1.75l8.625 5.488a.764.764 0 00.816 0zM.957 3.498v7.938c0 .31.064.616.188.9l5.838-5.001L.957 3.498zM11.827 8.18l-.532.34a2.291 2.291 0 01-2.446 0l-.532-.34c-.011.01-.016.025-.027.035l-6.106 5.23c.322.175.683.267 1.05.27h13.671a2.245 2.245 0 001.05-.27l-6.1-5.23c-.013-.01-.017-.024-.028-.034z"/></symbol><symbol id="icon-menu" viewBox="0 0 21 15"><rect width="21" height="3" rx="1"/><rect y="6" width="21" height="3" rx="1"/><rect y="12" width="21" height="3" rx="1"/></symbol><symbol id="icon-mouse" viewBox="0 0 24 36"><path d="M12 0C5.373 0 0 5.54 0 12.375v11.25C0 30.459 5.373 36 12 36s12-5.54 12-12.375v-11.25C24 5.541 18.627 0 12 0zm9.818 23.625c0 5.583-4.404 10.125-9.818 10.125s-9.818-4.542-9.818-10.125v-11.25C2.182 6.792 6.586 2.25 12 2.25s9.818 4.542 9.818 10.125v11.25zM12 5.625c-1.808 0-3.273 1.51-3.273 3.375v4.5c0 1.865 1.465 3.375 3.273 3.375s3.273-1.51 3.273-3.375V9c0-1.865-1.465-3.375-3.273-3.375zm1.09 7.875c0 .622-.487 1.125-1.09 1.125-.603 0-1.09-.503-1.09-1.125V9c0-.622.487-1.125 1.09-1.125.603 0 1.09.503 1.09 1.125v4.5z"/><path d="M13.088 21.482c0-.621-.488-1.125-1.09-1.125-.603 0-1.092.504-1.092 1.125v6.817c0 .622.489 1.125 1.091 1.125.603 0 1.091-.503 1.091-1.125v-6.817z"/><path d="M10.252 25.163a1.068 1.068 0 00-1.543 0 1.15 1.15 0 000 1.591l2.543 2.623c.427.44 1.117.44 1.543 0a1.15 1.15 0 000-1.59l-2.543-2.624z"/><path d="M15.295 26.753a1.15 1.15 0 000-1.591 1.068 1.068 0 00-1.543 0l-2.544 2.623a1.15 1.15 0 000 1.59c.426.44 1.117.44 1.543 0l2.544-2.622z"/></symbol><symbol id="icon-phone" viewBox="0 0 19 19"><path d="M18.541 14.611c-.05-.15-.367-.371-.951-.663a29.745 29.745 0 00-.676-.376 61.364 61.364 0 01-.794-.438 26.5 26.5 0 01-.67-.388 16.48 16.48 0 00-.313-.219 3.517 3.517 0 00-.444-.269.82.82 0 00-.357-.087c-.167 0-.375.119-.626.356a6.09 6.09 0 00-.688.777c-.208.28-.43.538-.663.775-.234.238-.426.357-.576.357a.851.851 0 01-.281-.062 2.916 2.916 0 01-.257-.106 4.696 4.696 0 01-.3-.176 7.97 7.97 0 00-.238-.144c-1.143-.634-2.124-1.36-2.942-2.178-.817-.817-1.543-1.798-2.177-2.941a7.255 7.255 0 00-.144-.238 4.512 4.512 0 01-.175-.3 2.712 2.712 0 01-.107-.257.847.847 0 01-.062-.281c0-.15.119-.342.356-.576.238-.234.497-.455.776-.663a6.09 6.09 0 00.776-.688c.238-.25.357-.46.357-.626a.817.817 0 00-.088-.357 3.478 3.478 0 00-.269-.444c-.12-.176-.194-.28-.219-.313a27.488 27.488 0 01-.388-.67 63.24 63.24 0 01-.438-.795 29.751 29.751 0 00-.375-.675c-.292-.584-.513-.901-.663-.951a.7.7 0 00-.263-.038c-.226 0-.52.042-.883.125-.363.084-.648.171-.857.263-.417.175-.86.684-1.327 1.527C1.17 3.656.957 4.432.957 5.2c0 .225.015.444.044.657a5.4 5.4 0 00.156.72c.075.266.136.465.182.594.046.13.131.36.256.694.125.334.2.539.225.614.292.817.639 1.547 1.04 2.19.658 1.068 1.557 2.172 2.696 3.31 1.14 1.14 2.243 2.039 3.31 2.698.643.4 1.373.746 2.19 1.039.076.024.28.1.614.225.334.125.565.21.695.257.129.045.327.106.594.181.267.075.507.127.72.157.213.029.432.044.657.044.767 0 1.544-.213 2.328-.639.842-.467 1.351-.91 1.526-1.327.092-.208.18-.494.263-.857.084-.363.125-.657.125-.882a.698.698 0 00-.037-.264z"/></symbol><symbol id="icon-play" viewBox="0 0 18 21"><path d="M16.27 7.978c1.835 1.181 1.835 3.863 0 5.044L5.313 20.08C3.315 21.366.688 19.933.688 17.558V3.443C.688 1.068 3.315-.365 5.312.92L16.27 7.978z"/></symbol><symbol id="icon-select-down" viewBox="0 0 8 6"><path d="M4.71 4.782a1 1 0 01-1.42 0L.49 1.953C-.135 1.322.312.25 1.2.25h5.6c.888 0 1.335 1.072.71 1.703l-2.8 2.829z"/></symbol><symbol id="icon-tgm" viewBox="0 0 22 19"><path d="M19.351 1.154L.861 8.25c-.743.33-.995.992-.18 1.351l4.744 1.5 11.469-7.054c.626-.442 1.267-.324.716.163l-9.85 8.875-.31 3.757c.287.58.811.582 1.146.294l2.725-2.566 4.668 3.478c1.084.639 1.674.227 1.907-.944l3.061-14.426c.318-1.441-.224-2.076-1.606-1.524z"/></symbol><symbol id="icon-zoom" viewBox="0 0 20 20"><path fill-rule="evenodd" clip-rule="evenodd" d="M15.2 13.8l4.5 4.5c.4.4.4 1 0 1.4-.2.2-.5.3-.7.3-.2 0-.5-.1-.7-.3l-4.5-4.5c-1.5 1.1-3.3 1.8-5.3 1.8C3.8 17 0 13.2 0 8.5S3.8 0 8.5 0 17 3.8 17 8.5c0 2-.7 3.9-1.8 5.3zM8.5 2C4.9 2 2 4.9 2 8.5S4.9 15 8.5 15c1.8 0 3.4-.7 4.6-1.9 1.2-1.2 1.9-2.8 1.9-4.6C15 4.9 12.1 2 8.5 2z"/></symbol> <view id="icon-arr-down-view-dark" viewBox="0 0 14 8"/><view id="icon-arr-down-view-white" viewBox="0 18 14 8"/><view id="icon-arr-down-view-accent" viewBox="0 36 14 8"/><view id="icon-arr-left-view-dark" viewBox="0 54 17 28"/><view id="icon-arr-left-view-white" viewBox="0 92 17 28"/><view id="icon-arr-left-view-accent" viewBox="0 130 17 28"/><view id="icon-arr-right-view-dark" viewBox="0 168 17 28"/><view id="icon-arr-right-view-white" viewBox="0 206 17 28"/><view id="icon-arr-right-view-accent" viewBox="0 244 17 28"/><view id="icon-arr-up-view-dark" viewBox="0 282 14 8"/><view id="icon-arr-up-view-white" viewBox="0 300 14 8"/><view id="icon-arr-up-view-accent" viewBox="0 318 14 8"/><view id="icon-back-view-dark" viewBox="0 336 18 13"/><view id="icon-back-view-white" viewBox="0 359 18 13"/><view id="icon-back-view-accent" viewBox="0 382 18 13"/><view id="icon-close-view-dark" viewBox="0 405 21 21"/><view id="icon-close-view-white" viewBox="0 436 21 21"/><view id="icon-close-view-accent" viewBox="0 467 21 21"/><view id="icon-finger-view-dark" viewBox="0 498 40 42"/><view id="icon-finger-view-white" viewBox="0 550 40 42"/><view id="icon-finger-view-accent" viewBox="0 602 40 42"/><view id="icon-full-view-dark" viewBox="0 654 21 21"/><view id="icon-full-view-white" viewBox="0 685 21 21"/><view id="icon-full-view-accent" viewBox="0 716 21 21"/><view id="icon-geo-view-dark" viewBox="0 747 17 22"/><view id="icon-geo-view-white" viewBox="0 779 17 22"/><view id="icon-geo-view-accent" viewBox="0 811 17 22"/><view id="icon-info-view-dark" viewBox="0 843 8 16"/><view id="icon-info-view-white" viewBox="0 869 8 16"/><view id="icon-info-view-accent" viewBox="0 895 8 16"/><view id="icon-mail-view-dark" viewBox="0 921 20 14"/><view id="icon-mail-view-white" viewBox="0 945 20 14"/><view id="icon-mail-view-accent" viewBox="0 969 20 14"/><view id="icon-menu-view-dark" viewBox="0 993 21 15"/><view id="icon-menu-view-white" viewBox="0 1018 21 15"/><view id="icon-menu-view-accent" viewBox="0 1043 21 15"/><view id="icon-mouse-view-dark" viewBox="0 1068 24 36"/><view id="icon-mouse-view-white" viewBox="0 1114 24 36"/><view id="icon-mouse-view-accent" viewBox="0 1160 24 36"/><view id="icon-phone-view-dark" viewBox="0 1206 19 19"/><view id="icon-phone-view-white" viewBox="0 1235 19 19"/><view id="icon-phone-view-accent" viewBox="0 1264 19 19"/><view id="icon-play-view-dark" viewBox="0 1293 18 21"/><view id="icon-play-view-white" viewBox="0 1324 18 21"/><view id="icon-play-view-accent" viewBox="0 1355 18 21"/><view id="icon-select-down-view-dark" viewBox="0 1386 8 6"/><view id="icon-select-down-view-white" viewBox="0 1402 8 6"/><view id="icon-select-down-view-accent" viewBox="0 1418 8 6"/><view id="icon-tgm-view-dark" viewBox="0 1434 22 19"/><view id="icon-tgm-view-white" viewBox="0 1463 22 19"/><view id="icon-tgm-view-accent" viewBox="0 1492 22 19"/><view id="icon-zoom-view-dark" viewBox="0 1521 20 20"/><view id="icon-zoom-view-white" viewBox="0 1551 20 20"/><view id="icon-zoom-view-accent" viewBox="0 1581 20 20"/> <use xlink:href="#icon-arr-down" x="0" y="0" width="14" height="8" style="fill:#232B5B"/><use xlink:href="#icon-arr-down" x="0" y="18" width="14" height="8" style="fill:#ffffff"/><use xlink:href="#icon-arr-down" x="0" y="36" width="14" height="8" style="fill:#32BFC6"/><use xlink:href="#icon-arr-left" x="0" y="54" width="17" height="28" style="fill:#232B5B"/><use xlink:href="#icon-arr-left" x="0" y="92" width="17" height="28" style="fill:#ffffff"/><use xlink:href="#icon-arr-left" x="0" y="130" width="17" height="28" style="fill:#32BFC6"/><use xlink:href="#icon-arr-right" x="0" y="168" width="17" height="28" style="fill:#232B5B"/><use xlink:href="#icon-arr-right" x="0" y="206" width="17" height="28" style="fill:#ffffff"/><use xlink:href="#icon-arr-right" x="0" y="244" width="17" height="28" style="fill:#32BFC6"/><use xlink:href="#icon-arr-up" x="0" y="282" width="14" height="8" style="fill:#232B5B"/><use xlink:href="#icon-arr-up" x="0" y="300" width="14" height="8" style="fill:#ffffff"/><use xlink:href="#icon-arr-up" x="0" y="318" width="14" height="8" style="fill:#32BFC6"/><use xlink:href="#icon-back" x="0" y="336" width="18" height="13" style="fill:#232B5B"/><use xlink:href="#icon-back" x="0" y="359" width="18" height="13" style="fill:#ffffff"/><use xlink:href="#icon-back" x="0" y="382" width="18" height="13" style="fill:#32BFC6"/><use xlink:href="#icon-close" x="0" y="405" width="21" height="21" style="fill:#232B5B"/><use xlink:href="#icon-close" x="0" y="436" width="21" height="21" style="fill:#ffffff"/><use xlink:href="#icon-close" x="0" y="467" width="21" height="21" style="fill:#32BFC6"/><use xlink:href="#icon-finger" x="0" y="498" width="40" height="42" style="fill:#232B5B"/><use xlink:href="#icon-finger" x="0" y="550" width="40" height="42" style="fill:#ffffff"/><use xlink:href="#icon-finger" x="0" y="602" width="40" height="42" style="fill:#32BFC6"/><use xlink:href="#icon-full" x="0" y="654" width="21" height="21" style="fill:#232B5B"/><use xlink:href="#icon-full" x="0" y="685" width="21" height="21" style="fill:#ffffff"/><use xlink:href="#icon-full" x="0" y="716" width="21" height="21" style="fill:#32BFC6"/><use xlink:href="#icon-geo" x="0" y="747" width="17" height="22" style="fill:#232B5B"/><use xlink:href="#icon-geo" x="0" y="779" width="17" height="22" style="fill:#ffffff"/><use xlink:href="#icon-geo" x="0" y="811" width="17" height="22" style="fill:#32BFC6"/><use xlink:href="#icon-info" x="0" y="843" width="8" height="16" style="fill:#232B5B"/><use xlink:href="#icon-info" x="0" y="869" width="8" height="16" style="fill:#ffffff"/><use xlink:href="#icon-info" x="0" y="895" width="8" height="16" style="fill:#32BFC6"/><use xlink:href="#icon-mail" x="0" y="921" width="20" height="14" style="fill:#232B5B"/><use xlink:href="#icon-mail" x="0" y="945" width="20" height="14" style="fill:#ffffff"/><use xlink:href="#icon-mail" x="0" y="969" width="20" height="14" style="fill:#32BFC6"/><use xlink:href="#icon-menu" x="0" y="993" width="21" height="15" style="fill:#232B5B"/><use xlink:href="#icon-menu" x="0" y="1018" width="21" height="15" style="fill:#ffffff"/><use xlink:href="#icon-menu" x="0" y="1043" width="21" height="15" style="fill:#32BFC6"/><use xlink:href="#icon-mouse" x="0" y="1068" width="24" height="36" style="fill:#232B5B"/><use xlink:href="#icon-mouse" x="0" y="1114" width="24" height="36" style="fill:#ffffff"/><use xlink:href="#icon-mouse" x="0" y="1160" width="24" height="36" style="fill:#32BFC6"/><use xlink:href="#icon-phone" x="0" y="1206" width="19" height="19" style="fill:#232B5B"/><use xlink:href="#icon-phone" x="0" y="1235" width="19" height="19" style="fill:#ffffff"/><use xlink:href="#icon-phone" x="0" y="1264" width="19" height="19" style="fill:#32BFC6"/><use xlink:href="#icon-play" x="0" y="1293" width="18" height="21" style="fill:#232B5B"/><use xlink:href="#icon-play" x="0" y="1324" width="18" height="21" style="fill:#ffffff"/><use xlink:href="#icon-play" x="0" y="1355" width="18" height="21" style="fill:#32BFC6"/><use xlink:href="#icon-select-down" x="0" y="1386" width="8" height="6" style="fill:#232B5B"/><use xlink:href="#icon-select-down" x="0" y="1402" width="8" height="6" style="fill:#ffffff"/><use xlink:href="#icon-select-down" x="0" y="1418" width="8" height="6" style="fill:#32BFC6"/><use xlink:href="#icon-tgm" x="0" y="1434" width="22" height="19" style="fill:#232B5B"/><use xlink:href="#icon-tgm" x="0" y="1463" width="22" height="19" style="fill:#ffffff"/><use xlink:href="#icon-tgm" x="0" y="1492" width="22" height="19" style="fill:#32BFC6"/><use xlink:href="#icon-zoom" x="0" y="1521" width="20" height="20" style="fill:#232B5B"/><use xlink:href="#icon-zoom" x="0" y="1551" width="20" height="20" style="fill:#ffffff"/><use xlink:href="#icon-zoom" x="0" y="1581" width="20" height="20" style="fill:#32BFC6"/></svg>