<svg width="280" height="43" viewBox="0 0 280 43" fill="none" xmlns="http://www.w3.org/2000/svg">
<path fill-rule="evenodd" clip-rule="evenodd" d="M48.86 24.8733C46.7659 26.8275 42.2638 27.9618 38.08 27.3332C35.992 27.1771 34.024 26.2913 32.5168 24.829C31.0096 23.3667 30.0582 21.4201 29.8274 19.3263C29.0905 14.8928 30.6851 7.66288 39.7011 7.66288C47.2994 7.66288 48.8718 10.3318 48.8718 10.3318V7.94015H57.0611V25.0838C57.0611 28.6246 56.4274 35.3771 44.6011 36.1155C39.7954 36.4121 31.7918 34.007 31.7918 34.007V27.1864C31.7918 27.1864 38.276 30.2408 43.2025 29.5751C49.0029 28.7951 48.5992 27.1582 48.86 24.8733ZM37.94 17.4965C37.94 20.1848 40.9375 20.6578 43.3293 20.6578C45.7211 20.6578 48.86 20.2026 48.86 17.6359C48.86 15.0693 46.5832 14.4035 43.4737 14.4035C40.3642 14.4035 37.94 15.0114 37.94 17.4965ZM72.7293 28.8797C81.4328 28.8797 86.4493 24.8762 86.4493 18.9734C86.4493 13.0705 83.5166 7.52053 73.0093 7.52053C62.5019 7.52053 59.1566 12.9459 59.1566 17.9191C59.1566 22.8923 61.544 28.8782 72.7307 28.8782L72.7293 28.8797ZM67.3474 18.1282C67.3474 21.6987 70.8842 21.9923 72.5981 21.9923C74.312 21.9923 78.2674 21.8662 78.2674 18.4796C78.2674 15.093 75.9832 14.405 72.7381 14.405C69.4931 14.405 67.3474 15.4444 67.3474 18.1282ZM88.5566 28.5268H96.7459V1.12391H88.5507V28.5253L88.5566 28.5268ZM117.957 26.0684C117.957 26.0684 115.273 29.1999 108.647 28.8085C102.022 28.417 98.7575 24.4418 98.7737 18.1326C98.7899 11.8235 102.605 7.45677 109.484 7.5235C116.364 7.59022 117.954 10.5454 117.954 10.5454V0.983048H126.074V28.5268H117.954V26.0669L117.957 26.0684ZM106.96 18.1282C106.96 21.6987 110.497 21.9923 112.211 21.9923C113.925 21.9923 117.951 21.8662 117.951 18.4796C117.951 15.093 115.593 14.405 112.351 14.405C109.109 14.405 106.96 15.4444 106.96 18.1282ZM140.98 7.94015H157.22V28.5268H149.029V14.8276H140.84V28.4586H132.587V14.7549H127.827V7.93422H132.658C132.658 7.93422 131.895 1.49757 139.651 0.561945C145.017 -0.13536 150.448 -0.158769 155.82 0.492255V6.5345C152.095 6.23179 148.356 6.13773 144.62 6.25277C140.716 6.48556 140.98 7.94015 140.98 7.94015ZM177.1 15.1063H185.291C185.291 15.1063 186.001 9.22274 179.06 8.07953C174.304 7.22505 169.428 7.32077 164.709 8.36125C163.267 8.51291 161.938 9.21834 160.999 10.3308C160.06 11.4432 159.584 12.877 159.669 14.3338C159.607 15.6366 160.032 16.9157 160.862 17.9177C161.692 18.9197 162.866 19.5716 164.151 19.7444C168.094 20.5301 172.1 20.9535 176.12 21.0092C177.913 21.1085 177.888 22.7885 176.12 22.9056C173.929 23.0544 171.731 23.0544 169.54 22.9056C168.361 22.7055 167.932 22.658 167.86 21.3606H159.669C159.625 22.9676 160.161 24.5363 161.178 25.7764C162.195 27.0164 163.624 27.8439 165.2 28.1057C170.263 29.0987 175.472 29.075 180.526 28.036C184.762 27.0158 185.637 24.596 185.637 22.0634C185.637 19.5309 184.691 17.1066 180.037 16.3014C176.395 15.7517 172.727 15.3998 169.048 15.2472C167.17 15.0826 167.699 13.5672 169.195 13.4901C171.316 13.352 173.444 13.352 175.564 13.4901C175.773 13.4855 175.981 13.5248 176.174 13.6053C176.367 13.6859 176.541 13.806 176.686 13.958C176.83 14.11 176.942 14.2906 177.013 14.4883C177.084 14.686 177.114 14.8965 177.1 15.1063ZM195.86 28.5268H187.669V1.05422H195.789V10.3956C195.789 10.3956 197.969 7.45529 203.911 7.57836C209.853 7.70143 214.271 10.6536 214.271 16.6425V28.4467H206.149V18.1282C206.149 14.9803 203.84 14.19 200.971 14.2641C198.101 14.3383 195.86 14.7594 195.86 18.3387V28.5268ZM1.89074 10.9605H0V9.8366H1.89074V8.43094L3.08 8.15515V9.8366H7.14V10.9605H3.08V13.2796C3.08 14.405 3.66947 14.8928 5.18 14.8958C5.86003 14.9267 6.54136 14.8795 7.21074 14.7549V15.8788C6.44779 16.005 5.67399 16.0522 4.90147 16.0197C3.00484 16.0197 1.89074 15.302 1.89074 13.2025V10.9605ZM9.66147 15.8788H8.47074V7.94015H9.66V11.2423C9.66 11.2423 10.2377 9.7595 12.8107 9.7595C15.3838 9.7595 16.1707 11.3075 16.1707 12.5767V15.9485H14.98V12.6464C14.8932 12.1068 14.6078 11.6197 14.1805 11.2821C13.7532 10.9445 13.2153 10.781 12.6737 10.8241C10.1596 10.8241 9.66295 12.1067 9.66295 12.6509V15.8833L9.66147 15.8788ZM25.4107 13.9824C25.4107 13.9824 25.1573 16.0138 21.42 16.0138C17.6827 16.0138 17.2937 14.0862 17.2937 12.7117C17.2937 11.3372 18.3032 9.68981 21.4937 9.68981C24.6842 9.68981 25.5537 11.5863 25.5537 12.507V13.2796H18.48C18.48 13.2796 18.5257 15.1523 21.4274 15.1063C23.9665 15.0663 24.08 13.9824 24.08 13.9824H25.4063H25.4107ZM18.4844 12.4374H24.2952C24.2952 12.4374 24.3394 10.6758 21.42 10.6758C18.5006 10.6758 18.48 12.4359 18.48 12.4359L18.4844 12.4374ZM151.558 40.9641C153.984 40.9641 155.684 39.9663 155.684 38.0135C155.684 36.0607 154.718 34.6417 151.558 34.6417C148.399 34.6417 147.358 36.0384 147.358 37.8029C147.358 39.5674 148.539 40.9627 151.551 40.9627L151.558 40.9641ZM151.487 39.769C153.425 39.769 154.497 39.2708 154.497 37.8014C154.497 36.332 153.375 35.7641 151.558 35.7641C149.741 35.7641 148.618 36.2697 148.618 37.8014C148.618 39.3331 149.542 39.7676 151.48 39.7676L151.487 39.769ZM145.279 37.3106C145.046 36.2045 143.986 35.7641 142.387 35.7641C140.57 35.7641 139.447 36.2697 139.447 37.8014C139.447 39.3331 140.379 39.769 142.317 39.769C144.02 39.769 145.055 39.385 145.28 38.2863H146.503C146.225 40.1575 144.694 40.9553 142.387 40.9553C139.377 40.9553 138.187 39.5585 138.187 37.794C138.187 36.0295 139.219 34.6328 142.387 34.6328C145.158 34.6328 146.243 35.7211 146.469 37.3017H145.271L145.279 37.3106ZM158.067 36.1867V34.7796H156.947V40.8218H158.067V37.9408C158.067 37.6887 158.215 35.6929 160.938 35.6929C161.251 35.6381 161.572 35.6537 161.878 35.7385C162.184 35.8234 162.468 35.9754 162.709 36.1836C162.949 36.3919 163.141 36.6512 163.271 36.943C163.4 37.2347 163.464 37.5517 163.457 37.8711V40.8218H164.647V37.8711C164.721 37.2167 164.565 36.5572 164.207 36.0057C163.85 35.4542 163.312 35.0453 162.687 34.8493C161.876 34.5479 160.99 34.5144 160.158 34.7535C159.326 34.9926 158.591 35.492 158.06 36.1793L158.067 36.1867ZM166.957 38.9268C166.957 38.9268 166.775 39.8387 168.077 39.9811C169.196 40.1007 170.325 40.0773 171.438 39.9114C172.571 39.7379 172.502 38.4805 171.367 38.3649C170.501 38.2774 168.678 38.2655 167.587 38.1543C167.361 38.1639 167.136 38.1273 166.924 38.0469C166.713 37.9665 166.52 37.8438 166.356 37.6863C166.193 37.5288 166.063 37.3398 165.974 37.1305C165.886 36.9212 165.84 36.696 165.84 36.4684C165.84 36.2409 165.886 36.0157 165.974 35.8064C166.063 35.5971 166.193 35.408 166.356 35.2505C166.52 35.093 166.713 34.9704 166.924 34.89C167.136 34.8095 167.361 34.773 167.587 34.7825C168.912 34.6162 170.252 34.6162 171.577 34.7825C172.057 34.8045 172.51 35.0156 172.838 35.3703C173.165 35.7251 173.341 36.195 173.327 36.679H172.126C172.131 36.5543 172.111 36.43 172.068 36.3131C172.024 36.1963 171.959 36.0891 171.874 35.9978C171.79 35.9065 171.688 35.8328 171.576 35.781C171.463 35.7292 171.341 35.7003 171.217 35.6959C170.057 35.5154 168.877 35.5154 167.717 35.6959C167.513 35.7053 167.321 35.7959 167.184 35.9476C167.046 36.0992 166.975 36.2997 166.984 36.5048C166.993 36.7098 167.083 36.9028 167.234 37.0411C167.385 37.1794 167.584 37.2519 167.788 37.2424C168.943 37.3907 170.872 37.3299 171.914 37.5227C172.117 37.5309 172.315 37.5792 172.499 37.665C172.683 37.7508 172.848 37.8722 172.985 38.0224C173.122 38.1726 173.228 38.3486 173.297 38.5402C173.366 38.7318 173.397 38.9353 173.388 39.1389C173.405 39.3651 173.374 39.5924 173.295 39.8052C173.217 40.0179 173.094 40.2111 172.934 40.3713C172.774 40.5315 172.582 40.655 172.37 40.7333C172.159 40.8116 171.933 40.8428 171.708 40.8248C170.266 41.0089 168.805 40.9854 167.369 40.7551C166.92 40.7148 166.503 40.5032 166.203 40.1636C165.904 39.824 165.745 39.3821 165.759 38.9283H166.948L166.957 38.9268ZM181.027 39.4236V40.8307H182.217V34.7796H181.027V37.662C181.027 37.9141 180.88 39.9129 178.158 39.9129C177.845 39.9677 177.524 39.952 177.217 39.867C176.911 39.782 176.627 39.6298 176.386 39.4213C176.144 39.2128 175.952 38.9531 175.823 38.661C175.693 38.3689 175.63 38.0515 175.637 37.7317V34.7796H174.44V37.7332C174.385 38.3948 174.556 39.0555 174.926 39.6057C175.295 40.1559 175.84 40.5625 176.471 40.758C177.271 41.0578 178.146 41.0897 178.966 40.849C179.785 40.6083 180.506 40.1078 181.02 39.4221L181.027 39.4236ZM183.758 32.8846H184.947V40.8233H183.758V32.8846ZM187.958 35.9065H186.067V34.7796H187.958V33.3739L189.147 33.0922V34.7781H193.2V35.902H189.14V38.221C189.14 39.3465 189.729 39.8343 191.24 39.8373C191.924 39.8816 192.61 39.8105 193.271 39.6267V40.7506C192.531 40.8819 191.779 40.9292 191.029 40.8915C189.133 40.8915 187.951 40.2435 187.951 38.1514V35.9035L187.958 35.9065ZM194.526 34.8448H195.646V40.8174H194.526V34.8448ZM195.086 33.7209C195.186 33.7415 195.288 33.7383 195.386 33.7114C195.484 33.6846 195.574 33.6349 195.649 33.5664C195.724 33.4979 195.782 33.4126 195.818 33.3173C195.854 33.222 195.868 33.1195 195.857 33.018C195.858 32.922 195.837 32.827 195.797 32.7401C195.756 32.6532 195.697 32.5766 195.622 32.5159C195.548 32.4553 195.462 32.4121 195.369 32.3897C195.276 32.3673 195.18 32.3662 195.086 32.3864C194.992 32.3748 194.896 32.3835 194.805 32.4119C194.715 32.4403 194.631 32.4878 194.56 32.5513C194.489 32.6148 194.432 32.6927 194.393 32.78C194.354 32.8673 194.334 32.9619 194.334 33.0575C194.334 33.1532 194.355 33.2477 194.394 33.3348C194.433 33.4219 194.491 33.4996 194.562 33.5627C194.633 33.6259 194.717 33.673 194.808 33.7011C194.899 33.7291 194.995 33.7374 195.089 33.7253L195.086 33.7209ZM198.377 36.1808V34.7796H197.257V40.8218H198.377V37.9408C198.377 37.6887 198.524 35.6929 201.246 35.6929C201.559 35.6379 201.881 35.6533 202.187 35.738C202.493 35.8228 202.777 35.9747 203.018 36.1829C203.259 36.3912 203.452 36.6506 203.581 36.9425C203.711 37.2344 203.774 37.5515 203.768 37.8711V40.8218H204.957V37.8711C205.03 37.2167 204.875 36.5572 204.517 36.0057C204.159 35.4542 203.622 35.0453 202.997 34.8493C202.187 34.5504 201.303 34.5181 200.473 34.7571C199.643 34.9962 198.91 35.4942 198.38 36.1793L198.377 36.1808ZM214.337 34.7751H213.146V35.9687C213.146 35.9687 212.384 34.6343 209.646 34.6343C206.908 34.6343 206.077 36.2964 206.077 37.6561C206.077 39.0158 206.88 40.8174 209.857 40.8174C210.48 40.9033 211.115 40.818 211.694 40.5705C212.273 40.3231 212.775 39.9227 213.146 39.4117C213.146 39.4117 213.793 41.9902 210.417 41.9413C207.234 41.8953 206.568 41.3793 206.568 41.3793V42.5033C206.568 42.5033 207.215 43 210.42 43C213.625 43 214.34 41.3867 214.34 40.331V34.7796L214.337 34.7751ZM213.146 37.7258C213.146 36.6538 212.557 35.7582 210.068 35.7582C207.579 35.7582 207.268 37.1431 207.268 37.7258C207.268 38.3085 207.392 39.6934 210.215 39.6934C212.622 39.6979 213.149 38.8038 213.149 37.7303L213.146 37.7258Z" fill="#220D41"/>
<path fill-rule="evenodd" clip-rule="evenodd" d="M228 21.2352C228 38.1387 242.746 41.4007 254.8 41.4007C266.855 41.4007 280 36.8294 280 21.7275C280 6.62559 268.712 1 254.24 1C239.769 1 228 6.18817 228 21.2352ZM240.167 21.1626C235.962 23.9709 235.339 28.7706 236.387 29.1694L236.39 29.1739C237.725 27.3041 239.042 26.932 239.526 26.9928C239.976 27.0558 239.959 27.3805 239.944 27.6861C239.93 27.9556 239.917 28.2103 240.226 28.2576C241.43 28.4411 243.637 27.5993 244.772 27.1664C245.159 27.0187 245.421 26.9185 245.476 26.9231C245.7 26.941 245.772 27.1117 245.85 27.2949C245.945 27.5213 246.049 27.7668 246.456 27.7668C247.013 27.7668 247.717 27.6539 248.42 27.5411C249.474 27.3723 250.525 27.2037 251.075 27.4153C251.487 27.574 251.511 27.915 251.535 28.2559C251.565 28.6734 251.594 29.0908 252.336 29.1724C252.222 29.242 252.235 29.5388 252.253 29.9577C252.277 30.521 252.31 31.305 252.056 32.0534C251.776 32.7663 251.281 33.373 250.641 33.7888C250 34.2047 249.247 34.4087 248.486 34.3724C248.15 34.3888 248.393 34.9344 248.696 34.9344C250.262 34.8754 251.794 34.459 253.177 33.7166C254.559 32.9742 255.756 31.9253 256.676 30.6492C258.547 28.0693 258.364 26.7088 258.213 25.5887C258.122 24.9172 258.043 24.3321 258.426 23.6224C259.445 21.729 262.416 22.2168 262.416 22.2168C262.188 22.3978 262.018 22.6422 261.926 22.9196C261.885 23.1441 261.931 23.5007 261.988 23.9368C262.137 25.0964 262.36 26.8187 261.226 28.1182C262.259 28.3109 263.535 27.3204 264.935 25.2372C266.009 23.7545 266.531 21.939 266.409 20.1083C267.492 22.0183 267.318 23.7724 267.244 24.5074C267.212 24.828 267.2 24.9548 267.319 24.8161C268.057 23.916 268.522 22.8213 268.659 21.6626C268.795 20.5039 268.597 19.3302 268.089 18.2816C268.699 17.4391 269.238 16.5462 269.699 15.6126C270.856 12.5937 270.474 12.567 270.119 12.6619C270.401 11.7845 270.018 11.7206 267.457 11.2938C267.031 11.2229 266.546 11.142 265.993 11.0457C264.268 10.6522 262.511 10.4169 260.744 10.3429C258.368 6.375 254.547 5.32372 254.722 5.84565C255.303 7.57032 254.442 8.67114 253.485 9.89627C252.6 11.0295 251.631 12.269 251.642 14.2069C251.654 15.3796 252.137 15.7586 252.461 16.0133C252.689 16.1918 252.838 16.3091 252.693 16.5957C252.466 17.0406 251.402 17.256 249.855 17.5693C247.38 18.0703 243.668 18.8216 240.167 21.1626Z" fill="#704C9F"/>
<path d="M266.85 13.35C266.85 13.8194 266.469 14.2 266 14.2C265.531 14.2 265.15 13.8194 265.15 13.35C265.15 12.8806 265.531 12.5 266 12.5C266.469 12.5 266.85 12.8806 266.85 13.35Z" fill="#704C9F"/>
</svg>
